<svg width="32" height="32" viewBox="0 0 32 32" fill="none" xmlns="http://www.w3.org/2000/svg">
<rect width="32" height="32" rx="10" fill="#2A333E"/>
<path d="M20.5 19.0638C19.93 19.0638 19.4163 19.2851 19.0262 19.6413L13.6825 16.5251C13.7238 16.3563 13.75 16.1801 13.75 16.0001C13.75 15.8201 13.7238 15.6438 13.6825 15.4751L18.97 12.3888C19.3713 12.7638 19.9075 12.9963 20.5 12.9963C21.7413 12.9963 22.75 11.9876 22.75 10.7463C22.75 9.50509 21.7413 8.49634 20.5 8.49634C19.2587 8.49634 18.25 9.50509 18.25 10.7463C18.25 10.9263 18.2762 11.1026 18.3175 11.2713L13.03 14.3576C12.6287 13.9826 12.0925 13.7501 11.5 13.7501C10.2587 13.7501 9.25 14.7588 9.25 16.0001C9.25 17.2413 10.2587 18.2501 11.5 18.2501C12.0925 18.2501 12.6287 18.0176 13.03 17.6426L18.3737 20.7588C18.3363 20.9163 18.3138 21.0813 18.3138 21.2501C18.3138 22.4576 19.2925 23.4363 20.5 23.4363C21.7075 23.4363 22.6863 22.4576 22.6863 21.2501C22.6863 20.0426 21.7075 19.0638 20.5 19.0638Z" fill="white"/>
</svg>
