<svg width="21" height="25" viewBox="0 0 21 25" fill="none" xmlns="http://www.w3.org/2000/svg">
<path d="M17.6689 13.3374C17.6936 11.4256 18.7203 9.6166 20.3491 8.61525C19.3215 7.14776 17.6005 6.21733 15.8099 6.1613C13.9001 5.96084 12.0486 7.3041 11.0754 7.3041C10.0834 7.3041 8.58495 6.18121 6.97142 6.2144C4.86825 6.28235 2.90757 7.4781 1.88434 9.31683C-0.315213 13.125 1.32545 18.7218 3.43244 21.8C4.48661 23.3073 5.71863 24.9911 7.33071 24.9313C8.90822 24.8659 9.49739 23.9254 11.4016 23.9254C13.2881 23.9254 13.8409 24.9313 15.4857 24.8934C17.1784 24.8659 18.2449 23.3794 19.2621 21.8578C20.0195 20.7837 20.6023 19.5967 20.989 18.3406C18.9997 17.4992 17.6712 15.4973 17.6689 13.3374Z" fill="white"/>
<path d="M14.5622 4.1369C15.4851 3.02892 15.9398 1.60481 15.8297 0.166992C14.4197 0.315093 13.1172 0.989014 12.1817 2.05448C11.267 3.09549 10.791 4.49455 10.881 5.87741C12.2916 5.89193 13.6783 5.23628 14.5622 4.1369Z" fill="white"/>
</svg>
